<svg width="526" height="526" viewBox="0 0 526 526" fill="none" xmlns="http://www.w3.org/2000/svg">
<path opacity="0.1" fill-rule="evenodd" clip-rule="evenodd" d="M25 225C135.457 225 225 135.457 225 25C225 -85.4569 135.457 -175 25 -175C-85.4569 -175 -175 -85.4569 -175 25C-175 135.457 -85.4569 225 25 225Z" stroke="white"/>
<path opacity="0.08" fill-rule="evenodd" clip-rule="evenodd" d="M25 325C190.685 325 325 190.685 325 25C325 -140.685 190.685 -275 25 -275C-140.685 -275 -275 -140.685 -275 25C-275 190.685 -140.685 325 25 325Z" stroke="white"/>
<path opacity="0.06" fill-rule="evenodd" clip-rule="evenodd" d="M25 425C245.914 425 425 245.914 425 25C425 -195.914 245.914 -375 25 -375C-195.914 -375 -375 -195.914 -375 25C-375 245.914 -195.914 425 25 425Z" stroke="white"/>
<path opacity="0.04" fill-rule="evenodd" clip-rule="evenodd" d="M25 525C301.142 525 525 301.142 525 25C525 -251.142 301.142 -475 25 -475C-251.142 -475 -475 -251.142 -475 25C-475 301.142 -251.142 525 25 525Z" stroke="white"/>
</svg>
