<svg width="32" height="32" viewBox="0 0 32 32" fill="none" xmlns="http://www.w3.org/2000/svg">
<path fill-rule="evenodd" clip-rule="evenodd" d="M10.227 2.66653H21.787C26.307 2.66653 29.3337 5.83987 29.3337 10.5599V21.4545C29.3337 26.1599 26.307 29.3332 21.787 29.3332H10.227C5.70699 29.3332 2.66699 26.1599 2.66699 21.4545V10.5599C2.66699 5.83987 5.70699 2.66653 10.227 2.66653ZM15.2403 19.9865L21.5736 13.6532C22.027 13.1999 22.027 12.4665 21.5736 11.9999C21.1203 11.5465 20.3736 11.5465 19.9203 11.9999L14.4136 17.5065L12.0803 15.1732C11.627 14.7199 10.8803 14.7199 10.427 15.1732C9.97364 15.6265 9.97364 16.3599 10.427 16.8265L13.6003 19.9865C13.827 20.2132 14.1203 20.3199 14.4136 20.3199C14.7203 20.3199 15.0136 20.2132 15.2403 19.9865Z" fill="#17E9BF"/>
</svg>
