<svg width="24" height="24" viewBox="0 0 24 24" fill="none" xmlns="http://www.w3.org/2000/svg">
<path fill-rule="evenodd" clip-rule="evenodd" d="M12.1223 2.64511C12.5365 2.64511 12.8723 2.9809 12.8723 3.39511V13.6205L14.5069 11.9792C14.7991 11.6857 15.274 11.6847 15.5675 11.977C15.861 12.2693 15.862 12.7441 15.5697 13.0376L12.6537 15.9656C12.5129 16.107 12.3217 16.1864 12.1223 16.1864C11.9228 16.1864 11.7316 16.107 11.5909 15.9656L8.67485 13.0376C8.38256 12.7441 8.38354 12.2693 8.67703 11.977C8.97052 11.6847 9.4454 11.6857 9.73769 11.9792L11.3723 13.6204V3.39511C11.3723 2.9809 11.708 2.64511 12.1223 2.64511ZM17.6881 8.87799C19.3087 8.87799 20.6221 10.1911 20.6221 11.813V16.697C20.6221 18.3128 19.3129 19.622 17.6971 19.622H6.55707C4.93629 19.622 3.62207 18.3078 3.62207 16.687V11.802C3.62207 10.1875 4.93202 8.87799 6.54707 8.87799H7.48907C7.90328 8.87799 8.23907 8.5422 8.23907 8.12799C8.23907 7.71378 7.90328 7.37799 7.48907 7.37799H6.54707C4.10412 7.37799 2.12207 9.35851 2.12207 11.802V16.687C2.12207 19.1362 4.10786 21.122 6.55707 21.122H17.6971C20.1413 21.122 22.1221 19.1412 22.1221 16.697V11.813C22.1221 9.36291 20.1374 7.37799 17.6881 7.37799H16.7551C16.3409 7.37799 16.0051 7.71378 16.0051 8.12799C16.0051 8.5422 16.3409 8.87799 16.7551 8.87799H17.6881Z" fill="white"/>
</svg>
