<svg width="16" height="16" viewBox="0 0 16 16" fill="none" xmlns="http://www.w3.org/2000/svg">
<path fill-rule="evenodd" clip-rule="evenodd" d="M7.99992 2.33347C4.87073 2.33347 2.33325 4.87094 2.33325 8.00013C2.33325 11.1293 4.87073 13.6668 7.99992 13.6668C11.1297 13.6668 13.6666 11.1294 13.6666 8.00013C13.6666 4.87091 11.1297 2.33347 7.99992 2.33347ZM1.33325 8.00013C1.33325 4.31866 4.31844 1.33347 7.99992 1.33347C11.6821 1.33347 14.6666 4.31869 14.6666 8.00013C14.6666 11.6816 11.6821 14.6668 7.99992 14.6668C4.31844 14.6668 1.33325 11.6816 1.33325 8.00013ZM7.99327 7.08473C8.26941 7.08473 8.49327 7.30858 8.49327 7.58473V10.5307C8.49327 10.8069 8.26941 11.0307 7.99327 11.0307C7.71712 11.0307 7.49327 10.8069 7.49327 10.5307V7.58473C7.49327 7.30858 7.71712 7.08473 7.99327 7.08473ZM7.99327 4.96953C7.71713 4.96953 7.49327 5.19339 7.49327 5.46953C7.49327 5.74568 7.71713 5.96953 7.99327 5.96953H7.99994C8.27608 5.96953 8.49994 5.74568 8.49994 5.46953C8.49994 5.19339 8.27608 4.96953 7.99994 4.96953H7.99327Z" fill="white"/>
</svg>
