<svg width="240" height="47" viewBox="0 0 240 47" fill="none" xmlns="http://www.w3.org/2000/svg">
<path d="M53.5413 6.53526C54.823 1.81281 59.6801 -0.969463 64.4013 0.311929C69.1225 1.59332 71.9064 6.44947 70.6246 11.1719C69.3432 15.8931 64.4874 18.6757 59.765 17.394C55.0438 16.1126 52.2599 11.2564 53.5413 6.53526Z" fill="#981BFF"/>
<path d="M58.6236 6.24353C58.4374 6.0662 58.4374 5.7787 58.6236 5.60138C58.8098 5.42405 59.1116 5.42405 59.2978 5.60138L62.1585 8.32578C62.3389 8.49768 62.3453 8.77448 62.1728 8.95368L59.5505 11.6781C59.3726 11.8629 59.071 11.8754 58.8769 11.706C58.6828 11.5365 58.6697 11.2493 58.8476 11.0644L61.1614 8.66051L58.6236 6.24353Z" fill="white"/>
<rect opacity="0.6" x="61.6624" y="10.5539" width="4.44987" height="1.27139" rx="0.635695" fill="white"/>
<path d="M11.8239 40.2727C15.1931 40.2727 18.0537 39.1602 20.3422 36.9035L17.6723 33.9793C16.1467 35.4732 14.0806 36.2996 11.8875 36.2996C7.46942 36.2996 4.44987 33.2165 4.44987 28.6713C4.44987 24.1261 7.46942 21.0429 11.8875 21.0429C14.0489 21.0429 15.8288 21.774 17.2909 23.2361L20.1198 20.5344C17.863 18.2459 15.0342 17.0698 11.7604 17.0698C4.86307 17.0698 0 21.774 0 28.6713C0 35.505 4.76771 40.2727 11.8239 40.2727Z" fill="white"/>
<path d="M30.1079 23.7764C28.3915 23.7764 26.8976 24.4439 25.6898 26.0649L25.3402 24.0943H21.6849V39.7959H25.9123V32.1358C25.9123 29.2752 27.4062 27.6542 29.7264 27.6542C30.6164 27.6542 31.3793 27.8767 32.2692 28.4806L34.1127 25.2067C33.0956 24.2532 31.57 23.7764 30.1079 23.7764Z" fill="white"/>
<path d="M41.6919 23.7764C36.7653 23.7764 33.4279 27.082 33.4279 31.9769C33.4279 36.9989 36.7971 40.2091 42.1051 40.2091C44.8386 40.2091 47.3496 39.2238 49.0024 37.5392L46.6503 35.1236C45.6332 36.0453 43.9486 36.6175 42.264 36.6175C39.7213 36.6175 38.0049 35.3143 37.7188 33.3436H49.8288C50.5281 27.527 47.3814 23.7764 41.6919 23.7764ZM41.8191 27.241C44.1711 27.241 45.6968 28.5124 45.8557 30.5466H37.7824C38.1002 28.4488 39.5941 27.241 41.8191 27.241Z" fill="white"/>
<path d="M64.0369 24.0943L63.7508 25.9696C62.4794 24.5393 60.5405 23.7446 58.3156 23.7446C53.8022 23.7446 50.6873 27.1138 50.6873 31.9451C50.6873 36.7764 53.8022 40.1456 58.3156 40.1456C60.5405 40.1456 62.4476 39.351 63.7508 37.8889L64.0369 39.7959H67.6921V24.0943H64.0369ZM59.1738 36.4585C56.6628 36.4585 54.8828 34.5832 54.8828 31.9451C54.8828 29.307 56.6628 27.4317 59.1738 27.4317C61.7166 27.4317 63.4965 29.307 63.4965 31.9451C63.4965 34.5832 61.7166 36.4585 59.1738 36.4585Z" fill="white"/>
<path d="M80.1775 35.95C79.6372 36.2043 78.9062 36.395 78.3022 36.395C77.0309 36.395 76.2998 35.6639 76.2998 34.2336V27.5588H80.5272V24.0943H76.2998V19.6444L72.1042 20.0894V24.0943H69.2754V27.5588H72.1042V34.2336C72.1042 38.3338 74.2338 40.0502 77.4441 40.0502C78.8426 40.0502 79.9868 39.8277 81.29 39.2238L80.1775 35.95Z" fill="white"/>
<path d="M89.9367 40.1456C95.1176 40.1456 98.4232 36.7446 98.4232 31.9451C98.4232 27.1456 95.1176 23.7446 89.9367 23.7446C84.7558 23.7446 81.4502 27.1456 81.4502 31.9451C81.4502 36.7446 84.7558 40.1456 89.9367 40.1456ZM89.9367 36.4585C87.3304 36.4585 85.6458 34.4561 85.6458 31.9451C85.6458 29.4341 87.3304 27.4317 89.9367 27.4317C92.5431 27.4317 94.2277 29.4341 94.2277 31.9451C94.2277 34.4561 92.5431 36.4585 89.9367 36.4585Z" fill="white"/>
<path d="M108.676 23.7764C106.959 23.7764 105.466 24.4439 104.258 26.0649L103.908 24.0943H100.253V39.7959H104.48V32.1358C104.48 29.2752 105.974 27.6542 108.294 27.6542C109.184 27.6542 109.947 27.8767 110.837 28.4806L112.681 25.2067C111.664 24.2532 110.138 23.7764 108.676 23.7764Z" fill="white"/>
<path d="M115.705 17.3241C114.37 17.3241 113.448 18.2459 113.448 19.4855C113.448 20.439 113.989 21.1701 114.847 21.4244L114.052 24.7935H116.182C117.517 21.8376 117.962 20.7251 117.962 19.5491C117.962 18.2459 117.04 17.3241 115.705 17.3241Z" fill="white"/>
<path d="M126.345 40.2091C130.668 40.2091 133.37 38.2067 133.37 35.1554C133.37 32.1358 131.145 30.5784 126.6 30.1334C124.661 29.9427 123.866 29.4977 123.866 28.6395C123.866 27.6859 124.883 27.1774 126.854 27.1774C128.475 27.1774 129.937 27.5588 131.24 28.3852L132.957 25.461C131.304 24.3485 129.111 23.6811 126.663 23.6811C122.468 23.6811 119.734 25.6835 119.734 28.6395C119.734 31.4683 122.15 33.2483 126.186 33.5661C128.348 33.7568 129.206 34.2018 129.206 35.1554C129.206 36.0771 128.221 36.6175 126.536 36.6175C124.534 36.6175 122.404 36.0136 120.942 34.9964L119.194 37.9842C121.196 39.4145 123.612 40.2091 126.345 40.2091Z" fill="white"/>
<path d="M151.587 26.9231V30.5784H157.721V34.5832C156.323 35.7593 154.543 36.3632 152.35 36.3632C147.964 36.3632 145.071 33.3436 145.071 28.6713C145.071 24.0307 148.059 20.9794 152.572 20.9794C154.67 20.9794 156.8 21.8376 158.262 23.2997L160.995 20.5662C158.739 18.2141 155.878 17.0698 152.604 17.0698C145.548 17.0698 140.685 21.8376 140.685 28.6713C140.685 35.6957 145.294 40.2727 152.318 40.2727C156.1 40.2727 159.215 39.0331 161.599 36.5539V26.9231H151.587Z" fill="white"/>
<path d="M176.349 24.0943L176.063 25.9696C174.791 24.5393 172.852 23.7446 170.628 23.7446C166.114 23.7446 162.999 27.1138 162.999 31.9451C162.999 36.7764 166.114 40.1456 170.628 40.1456C172.852 40.1456 174.76 39.351 176.063 37.8889L176.349 39.7959H180.004V24.0943H176.349ZM171.486 36.4585C168.975 36.4585 167.195 34.5832 167.195 31.9451C167.195 29.307 168.975 27.4317 171.486 27.4317C174.028 27.4317 175.808 29.307 175.808 31.9451C175.808 34.5832 174.028 36.4585 171.486 36.4585Z" fill="white"/>
<path d="M182.795 39.7959H187.023V17.5466H182.795V39.7959Z" fill="white"/>
<path d="M202.207 24.0943L201.921 25.9696C200.65 24.5393 198.711 23.7446 196.486 23.7446C191.973 23.7446 188.858 27.1138 188.858 31.9451C188.858 36.7764 191.973 40.1456 196.486 40.1456C198.711 40.1456 200.618 39.351 201.921 37.8889L202.207 39.7959H205.863V24.0943H202.207ZM197.344 36.4585C194.833 36.4585 193.053 34.5832 193.053 31.9451C193.053 29.307 194.833 27.4317 197.344 27.4317C199.887 27.4317 201.667 29.307 201.667 31.9451C201.667 34.5832 199.887 36.4585 197.344 36.4585Z" fill="white"/>
<path d="M217.903 31.7544L222.989 24.0943H218.189L216.314 26.9549L215.106 28.9573L213.93 26.9549L212.087 24.0943H207.192L212.309 31.7544L206.81 39.7959H211.642L213.453 37.0942L215.074 34.4561L216.695 37.0942L218.443 39.7959H223.37L217.903 31.7544Z" fill="white"/>
<path d="M235.423 24.0943L232.912 30.2287L231.1 35.0282L229.447 30.2287L227.127 24.0943H222.582L228.748 39.6052L225.633 46.8204H230.179L240 24.0943H235.423Z" fill="white"/>
<path d="M29.0614 4.45126H18.7199V6.6584H22.6536V16.9109H25.1277V6.6584H29.0614V4.45126Z" fill="white"/>
<path d="M34.7482 7.93996C33.5912 7.93996 32.6657 8.34935 31.9893 9.11472V4.45126H29.6219V16.9109H31.9893V12.283C31.9893 10.9303 32.8614 10.0047 34.1608 10.0047C35.3356 10.0047 36.0298 10.7879 36.0298 12.1406V16.9109H38.3971V11.9982C38.3971 9.52411 36.9909 7.93996 34.7482 7.93996Z" fill="white"/>
<path d="M43.9373 7.93996C41.1784 7.93996 39.3094 9.7911 39.3094 12.5322C39.3094 15.3445 41.1962 17.1423 44.1687 17.1423C45.6994 17.1423 47.1056 16.5905 48.0312 15.6471L46.714 14.2944C46.1444 14.8106 45.2011 15.1309 44.2577 15.1309C42.8337 15.1309 41.8726 14.4012 41.7124 13.2976H48.494C48.8856 10.0403 47.1234 7.93996 43.9373 7.93996ZM44.0085 9.8801C45.3257 9.8801 46.18 10.5921 46.269 11.7312H41.748C41.926 10.5565 42.7625 9.8801 44.0085 9.8801Z" fill="white"/>
</svg>
